Coordinates
version=1
nRows=16
nColumns=22
inDegrees=yes

Units are S.I. units (second, meters, Newtons, ...)
If the header above contains a line with 'inDegrees', this indicates whether rotational values are in degrees (yes) or radians (no).

endheader
time	pelvis_tilt	pelvis_list	pelvis_rotation	pelvis_tx	pelvis_ty	pelvis_tz	hip_flexion_r	hip_adduction_r	hip_rotation_r	knee_angle_r	ankle_angle_r	subtalar_angle_r	hip_flexion_l	hip_adduction_l	hip_rotation_l	knee_angle_l	ankle_angle_l	subtalar_angle_l	lumbar_extension	lumbar_bending	lumbar_rotation
      5.03000000	      0.54175677	      0.05865788	    -29.61973929	      0.48945490	      0.88065742	      0.27549485	    -11.78775880	     -0.05113790	     -2.13377318	    -18.70966863	     21.09643775	     -3.04554401	     24.95165336	     -4.22777907	    -10.00582234	    -23.55520114	      2.95994539	     -0.43758330	     -8.20704874	     -2.94182286	      6.75781293
      5.04000000	      0.50894698	      0.23156087	    -29.75823456	      0.49574416	      0.88129477	      0.27601492	    -11.61904913	     -0.42651266	     -1.78666349	    -19.39769366	     20.54828932	     -2.73829538	     24.72921585	     -3.97480472	    -10.21885243	    -23.69166673	      3.05866639	     -0.52487017	     -8.07728259	     -3.09652362	      6.85895685
      5.05000000	      0.47464493	      0.39037638	    -29.92346579	      0.50202174	      0.88197109	      0.27653404	    -11.40991971	     -0.79015438	     -1.40680118	    -20.14789695	     19.95903441	     -2.40986713	     24.46396848	     -3.73773129	    -10.47891990	    -23.77423660	      3.23659469	     -0.64959565	     -7.94405440	     -3.23198649	      6.97263880
      5.06000000	      0.43669744	      0.54152410	    -30.09614746	      0.50829010	      0.88267727	      0.27705551	    -11.16496541	     -1.13733071	     -0.99617480	    -20.94568393	     19.31534664	     -2.12786017	     24.16778870	     -3.50377766	    -10.76685634	    -23.80475759	      3.47893621	     -0.79785350	     -7.80315263	     -3.35544941	      7.07204848
      5.07000000	      0.40432506	      0.67698811	    -30.28611739	      0.51454027	      0.88342778	      0.27759462	    -10.89637451	     -1.47008419	     -0.56818980	    -21.78686713	     18.63084744	     -1.84079085	     23.83673499	     -3.27612306	    -11.05667806	    -23.80315150	      3.75796676	     -0.99906994	     -7.66623889	     -3.46217197	      7.16885977
      5.08000000	      0.38918245	      0.78880413	    -30.47185477	      0.52076520	      0.88422991	      0.27812253	    -10.61783622	     -1.78567781	     -0.16146379	    -22.67956059	     17.88602941	     -1.45615830	     23.47088089	     -3.04254969	    -11.29562254	    -23.78445948	      4.05986506	     -1.32869255	     -7.55766359	     -3.55666934	      7.28486460
      5.09000000	      0.36812291	      0.90151872	    -30.65371787	      0.52700415	      0.88504352	      0.27870793	    -10.32364571	     -2.08394221	      0.27324085	    -23.57607445	     17.10955439	     -1.22552027	     23.09287671	     -2.80770364	    -11.54958135	    -23.73515806	      4.37548199	     -1.57155009	     -7.42314746	     -3.64806052	      7.34331749
      5.10000000	      0.37014276	      0.98989468	    -30.82533767	      0.53320096	      0.88589559	      0.27928966	    -10.02908626	     -2.36746036	      0.67854622	    -24.51804700	     16.28943325	     -0.87270422	     22.69473107	     -2.56707554	    -11.73177277	    -23.70269270	      4.69028257	     -1.94353341	     -7.32547732	     -3.73164921	      7.42539667
      5.11000000	      0.36533592	      1.06611886	    -30.99010475	      0.53937843	      0.88674317	      0.27992552	     -9.71165189	     -2.62467754	      1.08633395	    -25.48790472	     15.44774844	     -0.58918371	     22.28862768	     -2.34118178	    -11.92119994	    -23.65007213	      4.99749160	     -2.23504019	     -7.21456714	     -3.80123653	      7.47863299
      5.12000000	      0.36706152	      1.12276923	    -31.14713551	      0.54549788	      0.88758624	      0.28056742	     -9.37466107	     -2.86306205	      1.47639177	    -26.50400733	     14.58273037	     -0.20772809	     21.88385564	     -2.12406568	    -12.06714502	    -23.61867052	      5.29684643	     -2.58119671	     -7.11931691	     -3.85577947	      7.54174799
      5.13000000	      0.36359517	      1.16272219	    -31.29234229	      0.55154293	      0.88840217	      0.28121717	     -9.00285130	     -3.07527896	      1.85842778	    -27.57359893	     13.69100123	      0.20360759	     21.49069288	     -1.92370744	    -12.18832307	    -23.59989103	      5.58782475	     -2.90439520	     -7.02952460	     -3.89302727	      7.59907333
      5.14000000	      0.34554999	      1.18011638	    -31.42899764	      0.55749169	      0.88918058	      0.28190046	     -8.58246190	     -3.25035374	      2.22327969	    -28.70679074	     12.78126012	      0.71160675	     21.10707017	     -1.75428703	    -12.28991694	    -23.58001206	      5.87291913	     -3.24241895	     -6.93429393	     -3.90664820	      7.65764679
      5.15000000	      0.31981904	      1.18672539	    -31.55973593	      0.56332671	      0.88990742	      0.28254213	     -8.10903621	     -3.40594600	      2.59214956	    -29.90588488	     11.83580187	      1.29793324	     20.75348125	     -1.59899976	    -12.37240750	    -23.59279703	      6.15591322	     -3.56980102	     -6.84762126	     -3.89657574	      7.69789777
      5.16000000	      0.27574852	      1.17130974	    -31.71814615	      0.56897789	      0.89057938	      0.28322396	     -7.55134517	     -3.52320352	      2.99091818	    -31.20677937	     10.88421439	      1.84362851	     20.41910182	     -1.49662164	    -12.50457688	    -23.61931141	      6.42095872	     -3.83522788	     -6.76228874	     -3.86099556	      7.78217772
      5.17000000	      0.23042966	      1.13715270	    -31.91664558	      0.57442505	      0.89122229	      0.28395819	     -6.92518544	     -3.60730032	      3.45616717	    -32.59951977	      9.92373351	      2.21004610	     20.08723551	     -1.44138977	    -12.71999559	    -23.65938046	      6.65823824	     -4.00610261	     -6.69650788	     -3.81342848	      7.89801173
      5.18000000	      0.15559340	      1.09091010	    -32.11380969	      0.57969575	      0.89178165	      0.28463778	     -6.19608159	     -3.65503331	      3.90237646	    -34.09425245	      8.92519022	      2.73660669	     19.79675452	     -1.41251825	    -12.91150394	    -23.71276203	      6.91086179	     -4.22778653	     -6.62250554	     -3.73241032	      8.01066320
